<svg width="38" height="36" viewBox="0 0 38 36" fill="none" xmlns="http://www.w3.org/2000/svg">
<path d="M37.411 8.20286C37.0921 7.76531 36.6429 7.42963 36.064 7.19517C36.0949 7.74232 36.0571 8.18767 35.9505 8.53172L29.105 31.6645C28.983 32.0707 28.7167 32.3949 28.3064 32.6372C27.8955 32.8796 27.4697 33.0007 27.0285 33.0007H5.96714C4.14169 33.0007 3.04657 32.4546 2.68132 31.36C2.52922 30.9381 2.5369 30.6024 2.70434 30.3524C2.87154 30.1178 3.16054 30.0003 3.57151 30.0003H23.4008C24.8156 30.0003 25.7929 29.7307 26.333 29.1916C26.8735 28.6525 27.4172 27.4531 27.9645 25.5939L34.2168 4.35912C34.5513 3.20293 34.4145 2.18719 33.8059 1.31242C33.1973 0.437636 32.3303 0 31.2045 0H13.8399C13.6421 0 13.2541 0.0701072 12.676 0.210814L12.6987 0.140296C12.2727 0.0467108 11.9114 0.00385839 11.6148 0.0113288C11.3183 0.019456 11.0444 0.109183 10.7934 0.281331C10.5425 0.453233 10.3407 0.636629 10.1887 0.831845C10.0366 1.02723 9.88813 1.27728 9.7437 1.58184C9.59944 1.88682 9.47756 2.16815 9.37869 2.42592C9.27983 2.68369 9.16562 2.95731 9.03654 3.24668C8.90706 3.53573 8.7819 3.77396 8.6601 3.96138C8.56874 4.08641 8.43967 4.25043 8.27215 4.45361C8.10503 4.6567 7.96804 4.83649 7.86158 4.99271C7.7552 5.14893 7.68654 5.28956 7.65633 5.41467C7.62612 5.55513 7.64115 5.76216 7.70197 6.03578C7.76271 6.30898 7.78565 6.50806 7.77023 6.63317C7.70948 7.22686 7.50024 7.98064 7.1429 8.89498C6.78556 9.80917 6.46195 10.4695 6.17303 10.8756C6.11221 10.9535 5.94501 11.1294 5.67111 11.4029C5.39721 11.6763 5.22993 11.9144 5.16927 12.1174C5.10836 12.1955 5.10453 12.4144 5.15776 12.7737C5.21099 13.1333 5.23025 13.3831 5.2149 13.5237C5.15376 14.0551 4.96394 14.7581 4.64433 15.6332C4.32471 16.5081 4.00542 17.227 3.6858 17.7894C3.64032 17.8831 3.51117 18.0626 3.29793 18.3285C3.08517 18.5942 2.95562 18.813 2.91006 18.9844C2.87969 19.1094 2.88369 19.3282 2.92157 19.6407C2.95937 19.9531 2.95562 20.1874 2.91006 20.3435C2.7885 20.9369 2.56023 21.6521 2.22551 22.4882C1.89087 23.3237 1.54856 24.0394 1.19841 24.6326C1.10746 24.789 0.981659 24.9728 0.822131 25.1835C0.662363 25.3941 0.536963 25.5779 0.44561 25.7341C0.354417 25.8903 0.293515 26.0543 0.263064 26.2263C0.247878 26.3201 0.270896 26.4724 0.331718 26.6836C0.39246 26.8943 0.415399 27.0622 0.399973 27.1877C0.384628 27.4062 0.354417 27.6956 0.30878 28.0552C0.263064 28.4141 0.240126 28.6248 0.240126 28.6872C-0.0945152 29.625 -0.0794896 30.6173 0.285842 31.6646C0.711836 32.8827 1.46847 33.9107 2.55616 34.7464C3.64392 35.5826 4.77324 36 5.94477 36H27.0064C27.9948 36 28.9266 35.6601 29.8014 34.9807C30.6761 34.3009 31.2581 33.4614 31.5467 32.4608L37.8216 11.2266C38.1566 10.1013 38.0199 9.09348 37.411 8.20286ZM13.1323 8.24974L13.6116 6.74957C13.6724 6.54648 13.7978 6.37072 13.988 6.22229C14.1782 6.07412 14.3722 5.99966 14.57 5.99966H28.4439C28.6567 5.99966 28.8087 6.07379 28.9001 6.22229C28.9912 6.3708 29.0068 6.54648 28.946 6.74957L28.4663 8.24974C28.4053 8.45292 28.2803 8.62826 28.0896 8.7771C27.8993 8.92528 27.7056 8.9994 27.508 8.9994H13.6345C13.4214 8.9994 13.2694 8.92552 13.178 8.7771C13.0868 8.62826 13.0716 8.45292 13.1323 8.24974ZM11.2385 14.2498L11.7177 12.7499C11.7785 12.5468 11.904 12.371 12.0941 12.2226C12.2843 12.0741 12.4781 12 12.6761 12H26.5495C26.7626 12 26.9149 12.0739 27.006 12.2226C27.0972 12.3711 27.1124 12.5468 27.0514 12.7499L26.5722 14.2498C26.5116 14.4529 26.386 14.6288 26.1959 14.7771C26.0055 14.9256 25.8119 14.9997 25.6138 14.9997H11.7404C11.5275 14.9997 11.3754 14.9258 11.2842 14.7771C11.1928 14.6288 11.1777 14.4529 11.2385 14.2498Z" fill="#C47AFF"/>
</svg>
