<svg width="23" height="31" viewBox="0 0 23 31" fill="none" xmlns="http://www.w3.org/2000/svg">
    <path d="M4.68348 0.436403C5.72987 -0.167732 7.09676 0.240827 7.73652 1.34893L10.394 5.95186C11.0338 7.05997 10.7042 8.44801 9.65778 9.05214L9.32358 9.24509C6.50567 10.872 5.04968 14.3881 6.75403 17.3828C-nan -nan -nan -nan 6.75403 17.3828L-nan -nanL6.75403 17.3828C6.91676 17.6688 7.08662 17.952 7.26406 18.2332C9.16976 21.2524 13.0748 21.7143 15.9949 20.0284C-nan -nan -nan -nan 15.9949 20.0284L-nan -nanL15.9949 20.0284C17.0413 19.4242 18.4082 19.8328 19.0479 20.9409L21.7054 25.5438C22.3452 26.6519 22.0156 28.04 20.9692 28.6441L17.4028 30.7031C16.7239 31.0951 15.91 31.0608 15.2474 30.6856L15.2417 30.692L15.161 30.6343C15.0743 30.5802 14.9906 30.5201 14.9105 30.4542C9.52144 26.5666 6.27767 23.3106 3.84474 19.0356C1.38147 14.7072 0.624081 10.9934 0.0721869 4.6792C-0.0349435 3.80941 0.346928 2.94011 1.11709 2.49546L4.68348 0.436403Z"
          fill="white"/>
</svg>
