<svg xmlns="http://www.w3.org/2000/svg">
    <path d="M12.5009 6.54545C13.0516 6.22748 13.771 6.44251 14.1077 7.02573L15.5064 9.44832C15.8431 10.0315 15.6696 10.7621 15.1189 11.08L14.943 11.1816C13.4599 12.0379 12.6936 13.8884 13.5906 15.4646C-nan -nan -nan -nan 13.5906 15.4646Lnan nanL13.5906 15.4646C13.6763 15.6151 13.7657 15.7642 13.8591 15.9122C14.8621 17.5013 16.9173 17.7443 18.4542 16.857C-nan -nan -nan -nan 18.4542 16.857Lnan nanL18.4542 16.857C19.005 16.539 19.7244 16.7541 20.0611 17.3373L21.4598 19.7599C21.7965 20.3431 21.623 21.0736 21.0723 21.3916L19.1952 22.4753C18.8379 22.6816 18.4096 22.6635 18.0608 22.4661L18.0578 22.4694L18.0154 22.4391C17.9697 22.4106 17.9257 22.379 17.8835 22.3443C15.0472 20.2982 13.3399 18.5845 12.0594 16.3345C10.763 14.0564 10.3643 12.1018 10.0739 8.7785C10.0175 8.32072 10.2185 7.86319 10.6238 7.62916L12.5009 6.54545Z"/>
</svg>
