<svg width="367" height="124" viewBox="0 0 367 124" fill="none" xmlns="http://www.w3.org/2000/svg">
<path d="M366.5 0L350.223 5.92094L363.489 17.0568L366.5 0ZM293.385 60.4817L292.7 61.816L293.385 60.4817ZM320.285 55.0556L319.137 54.0913L320.285 55.0556ZM184.098 85.1447L184.741 83.7893L184.098 85.1447ZM208.417 81.46L207.402 80.3559L208.417 81.46ZM160.81 74.1007L160.168 75.4561L160.81 74.1007ZM85.3978 99.6738L84.7029 101.003L85.3978 99.6738ZM108.539 97.9616L107.656 96.749L108.539 97.9616ZM2.40733 123.694L43.2857 92.6427L41.471 90.2537L0.592666 121.306L2.40733 123.694ZM65.1826 90.7994L84.7029 101.003L86.0927 98.3445L66.5724 88.1407L65.1826 90.7994ZM109.422 99.1742L139.316 77.4067L137.551 74.9815L107.656 96.749L109.422 99.1742ZM160.168 75.4561L183.456 86.5L184.741 83.7893L161.453 72.7454L160.168 75.4561ZM209.433 82.564L243.222 51.4899L241.191 49.2817L207.402 80.3559L209.433 82.564ZM266.463 48.343L292.7 61.816L294.071 59.1473L267.834 45.6743L266.463 48.343ZM321.434 56.02L358.969 11.3044L356.672 9.37559L319.137 54.0913L321.434 56.02ZM292.7 61.816C302.457 66.8264 314.382 64.4209 321.434 56.02L319.137 54.0913C312.985 61.4197 302.582 63.518 294.071 59.1473L292.7 61.816ZM243.222 51.4899C249.545 45.6753 258.822 44.4192 266.463 48.343L267.834 45.6743C259.074 41.1762 248.439 42.6162 241.191 49.2817L243.222 51.4899ZM183.456 86.5C192.108 90.6031 202.384 89.046 209.433 82.564L207.402 80.3559C201.253 86.0103 192.289 87.3686 184.741 83.7893L183.456 86.5ZM139.316 77.4067C145.385 72.9876 153.384 72.2393 160.168 75.4561L161.453 72.7454C153.677 69.0579 144.508 69.9157 137.551 74.9815L139.316 77.4067ZM84.7029 101.003C92.6205 105.142 102.2 104.433 109.422 99.1742L107.656 96.749C101.356 101.337 92.9995 101.955 86.0927 98.3445L84.7029 101.003ZM43.2857 92.6427C49.6111 87.8378 58.1429 87.1196 65.1826 90.7994L66.5724 88.1407C58.5025 83.9224 48.7221 84.7457 41.471 90.2537L43.2857 92.6427Z" fill="white"/>
<path d="M366.5 0L350.223 5.92094L363.489 17.0568L366.5 0ZM293.385 60.4817L292.7 61.816L293.385 60.4817ZM320.285 55.0556L319.137 54.0913L320.285 55.0556ZM184.098 85.1447L184.741 83.7893L184.098 85.1447ZM208.417 81.46L207.402 80.3559L208.417 81.46ZM160.81 74.1007L160.168 75.4561L160.81 74.1007ZM85.3978 99.6738L84.7029 101.003L85.3978 99.6738ZM108.539 97.9616L107.656 96.749L108.539 97.9616ZM2.40733 123.694L43.2857 92.6427L41.471 90.2537L0.592666 121.306L2.40733 123.694ZM65.1826 90.7994L84.7029 101.003L86.0927 98.3445L66.5724 88.1407L65.1826 90.7994ZM109.422 99.1742L139.316 77.4067L137.551 74.9815L107.656 96.749L109.422 99.1742ZM160.168 75.4561L183.456 86.5L184.741 83.7893L161.453 72.7454L160.168 75.4561ZM209.433 82.564L243.222 51.4899L241.191 49.2817L207.402 80.3559L209.433 82.564ZM266.463 48.343L292.7 61.816L294.071 59.1473L267.834 45.6743L266.463 48.343ZM321.434 56.02L358.969 11.3044L356.672 9.37559L319.137 54.0913L321.434 56.02ZM292.7 61.816C302.457 66.8264 314.382 64.4209 321.434 56.02L319.137 54.0913C312.985 61.4197 302.582 63.518 294.071 59.1473L292.7 61.816ZM243.222 51.4899C249.545 45.6753 258.822 44.4192 266.463 48.343L267.834 45.6743C259.074 41.1762 248.439 42.6162 241.191 49.2817L243.222 51.4899ZM183.456 86.5C192.108 90.6031 202.384 89.046 209.433 82.564L207.402 80.3559C201.253 86.0103 192.289 87.3686 184.741 83.7893L183.456 86.5ZM139.316 77.4067C145.385 72.9876 153.384 72.2393 160.168 75.4561L161.453 72.7454C153.677 69.0579 144.508 69.9157 137.551 74.9815L139.316 77.4067ZM84.7029 101.003C92.6205 105.142 102.2 104.433 109.422 99.1742L107.656 96.749C101.356 101.337 92.9995 101.955 86.0927 98.3445L84.7029 101.003ZM43.2857 92.6427C49.6111 87.8378 58.1429 87.1196 65.1826 90.7994L66.5724 88.1407C58.5025 83.9224 48.7221 84.7457 41.471 90.2537L43.2857 92.6427Z" fill="url(#paint0_radial_39_949)"/>
<path d="M366.5 0L350.223 5.92094L363.489 17.0568L366.5 0ZM293.385 60.4817L292.7 61.816L293.385 60.4817ZM320.285 55.0556L319.137 54.0913L320.285 55.0556ZM184.098 85.1447L184.741 83.7893L184.098 85.1447ZM208.417 81.46L207.402 80.3559L208.417 81.46ZM160.81 74.1007L160.168 75.4561L160.81 74.1007ZM85.3978 99.6738L84.7029 101.003L85.3978 99.6738ZM108.539 97.9616L107.656 96.749L108.539 97.9616ZM2.40733 123.694L43.2857 92.6427L41.471 90.2537L0.592666 121.306L2.40733 123.694ZM65.1826 90.7994L84.7029 101.003L86.0927 98.3445L66.5724 88.1407L65.1826 90.7994ZM109.422 99.1742L139.316 77.4067L137.551 74.9815L107.656 96.749L109.422 99.1742ZM160.168 75.4561L183.456 86.5L184.741 83.7893L161.453 72.7454L160.168 75.4561ZM209.433 82.564L243.222 51.4899L241.191 49.2817L207.402 80.3559L209.433 82.564ZM266.463 48.343L292.7 61.816L294.071 59.1473L267.834 45.6743L266.463 48.343ZM321.434 56.02L358.969 11.3044L356.672 9.37559L319.137 54.0913L321.434 56.02ZM292.7 61.816C302.457 66.8264 314.382 64.4209 321.434 56.02L319.137 54.0913C312.985 61.4197 302.582 63.518 294.071 59.1473L292.7 61.816ZM243.222 51.4899C249.545 45.6753 258.822 44.4192 266.463 48.343L267.834 45.6743C259.074 41.1762 248.439 42.6162 241.191 49.2817L243.222 51.4899ZM183.456 86.5C192.108 90.6031 202.384 89.046 209.433 82.564L207.402 80.3559C201.253 86.0103 192.289 87.3686 184.741 83.7893L183.456 86.5ZM139.316 77.4067C145.385 72.9876 153.384 72.2393 160.168 75.4561L161.453 72.7454C153.677 69.0579 144.508 69.9157 137.551 74.9815L139.316 77.4067ZM84.7029 101.003C92.6205 105.142 102.2 104.433 109.422 99.1742L107.656 96.749C101.356 101.337 92.9995 101.955 86.0927 98.3445L84.7029 101.003ZM43.2857 92.6427C49.6111 87.8378 58.1429 87.1196 65.1826 90.7994L66.5724 88.1407C58.5025 83.9224 48.7221 84.7457 41.471 90.2537L43.2857 92.6427Z" fill="url(#paint1_radial_39_949)"/>
<path d="M366.5 0L350.223 5.92094L363.489 17.0568L366.5 0ZM293.385 60.4817L292.7 61.816L293.385 60.4817ZM320.285 55.0556L319.137 54.0913L320.285 55.0556ZM184.098 85.1447L184.741 83.7893L184.098 85.1447ZM208.417 81.46L207.402 80.3559L208.417 81.46ZM160.81 74.1007L160.168 75.4561L160.81 74.1007ZM85.3978 99.6738L84.7029 101.003L85.3978 99.6738ZM108.539 97.9616L107.656 96.749L108.539 97.9616ZM2.40733 123.694L43.2857 92.6427L41.471 90.2537L0.592666 121.306L2.40733 123.694ZM65.1826 90.7994L84.7029 101.003L86.0927 98.3445L66.5724 88.1407L65.1826 90.7994ZM109.422 99.1742L139.316 77.4067L137.551 74.9815L107.656 96.749L109.422 99.1742ZM160.168 75.4561L183.456 86.5L184.741 83.7893L161.453 72.7454L160.168 75.4561ZM209.433 82.564L243.222 51.4899L241.191 49.2817L207.402 80.3559L209.433 82.564ZM266.463 48.343L292.7 61.816L294.071 59.1473L267.834 45.6743L266.463 48.343ZM321.434 56.02L358.969 11.3044L356.672 9.37559L319.137 54.0913L321.434 56.02ZM292.7 61.816C302.457 66.8264 314.382 64.4209 321.434 56.02L319.137 54.0913C312.985 61.4197 302.582 63.518 294.071 59.1473L292.7 61.816ZM243.222 51.4899C249.545 45.6753 258.822 44.4192 266.463 48.343L267.834 45.6743C259.074 41.1762 248.439 42.6162 241.191 49.2817L243.222 51.4899ZM183.456 86.5C192.108 90.6031 202.384 89.046 209.433 82.564L207.402 80.3559C201.253 86.0103 192.289 87.3686 184.741 83.7893L183.456 86.5ZM139.316 77.4067C145.385 72.9876 153.384 72.2393 160.168 75.4561L161.453 72.7454C153.677 69.0579 144.508 69.9157 137.551 74.9815L139.316 77.4067ZM84.7029 101.003C92.6205 105.142 102.2 104.433 109.422 99.1742L107.656 96.749C101.356 101.337 92.9995 101.955 86.0927 98.3445L84.7029 101.003ZM43.2857 92.6427C49.6111 87.8378 58.1429 87.1196 65.1826 90.7994L66.5724 88.1407C58.5025 83.9224 48.7221 84.7457 41.471 90.2537L43.2857 92.6427Z" fill="url(#paint2_radial_39_949)"/>
<path d="M366.5 0L350.223 5.92094L363.489 17.0568L366.5 0ZM293.385 60.4817L292.7 61.816L293.385 60.4817ZM320.285 55.0556L319.137 54.0913L320.285 55.0556ZM184.098 85.1447L184.741 83.7893L184.098 85.1447ZM208.417 81.46L207.402 80.3559L208.417 81.46ZM160.81 74.1007L160.168 75.4561L160.81 74.1007ZM85.3978 99.6738L84.7029 101.003L85.3978 99.6738ZM108.539 97.9616L107.656 96.749L108.539 97.9616ZM2.40733 123.694L43.2857 92.6427L41.471 90.2537L0.592666 121.306L2.40733 123.694ZM65.1826 90.7994L84.7029 101.003L86.0927 98.3445L66.5724 88.1407L65.1826 90.7994ZM109.422 99.1742L139.316 77.4067L137.551 74.9815L107.656 96.749L109.422 99.1742ZM160.168 75.4561L183.456 86.5L184.741 83.7893L161.453 72.7454L160.168 75.4561ZM209.433 82.564L243.222 51.4899L241.191 49.2817L207.402 80.3559L209.433 82.564ZM266.463 48.343L292.7 61.816L294.071 59.1473L267.834 45.6743L266.463 48.343ZM321.434 56.02L358.969 11.3044L356.672 9.37559L319.137 54.0913L321.434 56.02ZM292.7 61.816C302.457 66.8264 314.382 64.4209 321.434 56.02L319.137 54.0913C312.985 61.4197 302.582 63.518 294.071 59.1473L292.7 61.816ZM243.222 51.4899C249.545 45.6753 258.822 44.4192 266.463 48.343L267.834 45.6743C259.074 41.1762 248.439 42.6162 241.191 49.2817L243.222 51.4899ZM183.456 86.5C192.108 90.6031 202.384 89.046 209.433 82.564L207.402 80.3559C201.253 86.0103 192.289 87.3686 184.741 83.7893L183.456 86.5ZM139.316 77.4067C145.385 72.9876 153.384 72.2393 160.168 75.4561L161.453 72.7454C153.677 69.0579 144.508 69.9157 137.551 74.9815L139.316 77.4067ZM84.7029 101.003C92.6205 105.142 102.2 104.433 109.422 99.1742L107.656 96.749C101.356 101.337 92.9995 101.955 86.0927 98.3445L84.7029 101.003ZM43.2857 92.6427C49.6111 87.8378 58.1429 87.1196 65.1826 90.7994L66.5724 88.1407C58.5025 83.9224 48.7221 84.7457 41.471 90.2537L43.2857 92.6427Z" fill="url(#paint3_radial_39_949)"/>
<path d="M366.5 0L350.223 5.92094L363.489 17.0568L366.5 0ZM293.385 60.4817L292.7 61.816L293.385 60.4817ZM320.285 55.0556L319.137 54.0913L320.285 55.0556ZM184.098 85.1447L184.741 83.7893L184.098 85.1447ZM208.417 81.46L207.402 80.3559L208.417 81.46ZM160.81 74.1007L160.168 75.4561L160.81 74.1007ZM85.3978 99.6738L84.7029 101.003L85.3978 99.6738ZM108.539 97.9616L107.656 96.749L108.539 97.9616ZM2.40733 123.694L43.2857 92.6427L41.471 90.2537L0.592666 121.306L2.40733 123.694ZM65.1826 90.7994L84.7029 101.003L86.0927 98.3445L66.5724 88.1407L65.1826 90.7994ZM109.422 99.1742L139.316 77.4067L137.551 74.9815L107.656 96.749L109.422 99.1742ZM160.168 75.4561L183.456 86.5L184.741 83.7893L161.453 72.7454L160.168 75.4561ZM209.433 82.564L243.222 51.4899L241.191 49.2817L207.402 80.3559L209.433 82.564ZM266.463 48.343L292.7 61.816L294.071 59.1473L267.834 45.6743L266.463 48.343ZM321.434 56.02L358.969 11.3044L356.672 9.37559L319.137 54.0913L321.434 56.02ZM292.7 61.816C302.457 66.8264 314.382 64.4209 321.434 56.02L319.137 54.0913C312.985 61.4197 302.582 63.518 294.071 59.1473L292.7 61.816ZM243.222 51.4899C249.545 45.6753 258.822 44.4192 266.463 48.343L267.834 45.6743C259.074 41.1762 248.439 42.6162 241.191 49.2817L243.222 51.4899ZM183.456 86.5C192.108 90.6031 202.384 89.046 209.433 82.564L207.402 80.3559C201.253 86.0103 192.289 87.3686 184.741 83.7893L183.456 86.5ZM139.316 77.4067C145.385 72.9876 153.384 72.2393 160.168 75.4561L161.453 72.7454C153.677 69.0579 144.508 69.9157 137.551 74.9815L139.316 77.4067ZM84.7029 101.003C92.6205 105.142 102.2 104.433 109.422 99.1742L107.656 96.749C101.356 101.337 92.9995 101.955 86.0927 98.3445L84.7029 101.003ZM43.2857 92.6427C49.6111 87.8378 58.1429 87.1196 65.1826 90.7994L66.5724 88.1407C58.5025 83.9224 48.7221 84.7457 41.471 90.2537L43.2857 92.6427Z" fill="url(#paint4_linear_39_949)"/>
<defs>
<radialGradient id="paint0_radial_39_949" cx="0" cy="0" r="1" gradientUnits="userSpaceOnUse" gradientTransform="translate(1.49999 122.5) scale(365 70.225)">
<stop stop-color="#C47AFF"/>
<stop offset="1" stop-color="#C47AFF" stop-opacity="0.44"/>
</radialGradient>
<radialGradient id="paint1_radial_39_949" cx="0" cy="0" r="1" gradientUnits="userSpaceOnUse" gradientTransform="translate(366.5 3.91602e-06) rotate(90) scale(122.5 365)">
<stop stop-color="#00A3FF"/>
<stop offset="1" stop-color="#C47AFF" stop-opacity="0.69"/>
</radialGradient>
<radialGradient id="paint2_radial_39_949" cx="0" cy="0" r="1" gradientUnits="userSpaceOnUse" gradientTransform="translate(1.50001 49.875) rotate(11.2533) scale(372.155 107.656)">
<stop stop-color="#52AEAE"/>
<stop offset="1" stop-color="#C47AFF" stop-opacity="0.45"/>
</radialGradient>
<radialGradient id="paint3_radial_39_949" cx="0" cy="0" r="1" gradientUnits="userSpaceOnUse" gradientTransform="translate(366.5 119) rotate(-90) scale(84 242.519)">
<stop stop-color="#FFCA42"/>
<stop offset="1" stop-color="#C47AFF" stop-opacity="0"/>
</radialGradient>
<linearGradient id="paint4_linear_39_949" x1="367" y1="3.63859e-06" x2="-3.00002" y2="81.5" gradientUnits="userSpaceOnUse">
<stop offset="0.509889" stop-color="#C57AFF" stop-opacity="0"/>
<stop offset="1" stop-color="#0D0D17"/>
</linearGradient>
</defs>
</svg>
