<svg width="34" height="34" viewBox="0 0 34 34" fill="none" xmlns="http://www.w3.org/2000/svg">
<path fill-rule="evenodd" clip-rule="evenodd" d="M33.32 17.3865C33.32 16.181 33.2118 15.0219 33.0109 13.9092H17V20.4851H26.1491C25.755 22.6101 24.5573 24.4106 22.7568 25.616V29.8815H28.2509C31.4655 26.9219 33.32 22.5637 33.32 17.3865Z" fill="white"/>
<path fill-rule="evenodd" clip-rule="evenodd" d="M33.32 17.3865C33.32 16.181 33.2118 15.0219 33.0109 13.9092H17V20.4851H26.1491C25.755 22.6101 24.5573 24.4106 22.7568 25.616V29.8815H28.2509C31.4655 26.9219 33.32 22.5637 33.32 17.3865Z" fill="url(#paint0_radial_145_112)"/>
<path fill-rule="evenodd" clip-rule="evenodd" d="M33.32 17.3865C33.32 16.181 33.2118 15.0219 33.0109 13.9092H17V20.4851H26.1491C25.755 22.6101 24.5573 24.4106 22.7568 25.616V29.8815H28.2509C31.4655 26.9219 33.32 22.5637 33.32 17.3865Z" fill="url(#paint1_radial_145_112)"/>
<path fill-rule="evenodd" clip-rule="evenodd" d="M33.32 17.3865C33.32 16.181 33.2118 15.0219 33.0109 13.9092H17V20.4851H26.1491C25.755 22.6101 24.5573 24.4106 22.7568 25.616V29.8815H28.2509C31.4655 26.9219 33.32 22.5637 33.32 17.3865Z" fill="url(#paint2_radial_145_112)"/>
<path fill-rule="evenodd" clip-rule="evenodd" d="M33.32 17.3865C33.32 16.181 33.2118 15.0219 33.0109 13.9092H17V20.4851H26.1491C25.755 22.6101 24.5573 24.4106 22.7568 25.616V29.8815H28.2509C31.4655 26.9219 33.32 22.5637 33.32 17.3865Z" fill="url(#paint3_radial_145_112)"/>
<path fill-rule="evenodd" clip-rule="evenodd" d="M33.32 17.3865C33.32 16.181 33.2118 15.0219 33.0109 13.9092H17V20.4851H26.1491C25.755 22.6101 24.5573 24.4106 22.7568 25.616V29.8815H28.2509C31.4655 26.9219 33.32 22.5637 33.32 17.3865Z" fill="url(#paint4_linear_145_112)"/>
<path fill-rule="evenodd" clip-rule="evenodd" d="M16.9999 34C21.59 34 25.4381 32.4777 28.2509 29.8814L22.7568 25.6159C21.2345 26.6359 19.2872 27.2386 16.9999 27.2386C12.5722 27.2386 8.82448 24.2482 7.48766 20.23H1.80811V24.6345C4.60538 30.1905 10.3545 34 16.9999 34Z" fill="white"/>
<path fill-rule="evenodd" clip-rule="evenodd" d="M16.9999 34C21.59 34 25.4381 32.4777 28.2509 29.8814L22.7568 25.6159C21.2345 26.6359 19.2872 27.2386 16.9999 27.2386C12.5722 27.2386 8.82448 24.2482 7.48766 20.23H1.80811V24.6345C4.60538 30.1905 10.3545 34 16.9999 34Z" fill="url(#paint5_radial_145_112)"/>
<path fill-rule="evenodd" clip-rule="evenodd" d="M16.9999 34C21.59 34 25.4381 32.4777 28.2509 29.8814L22.7568 25.6159C21.2345 26.6359 19.2872 27.2386 16.9999 27.2386C12.5722 27.2386 8.82448 24.2482 7.48766 20.23H1.80811V24.6345C4.60538 30.1905 10.3545 34 16.9999 34Z" fill="url(#paint6_radial_145_112)"/>
<path fill-rule="evenodd" clip-rule="evenodd" d="M16.9999 34C21.59 34 25.4381 32.4777 28.2509 29.8814L22.7568 25.6159C21.2345 26.6359 19.2872 27.2386 16.9999 27.2386C12.5722 27.2386 8.82448 24.2482 7.48766 20.23H1.80811V24.6345C4.60538 30.1905 10.3545 34 16.9999 34Z" fill="url(#paint7_radial_145_112)"/>
<path fill-rule="evenodd" clip-rule="evenodd" d="M16.9999 34C21.59 34 25.4381 32.4777 28.2509 29.8814L22.7568 25.6159C21.2345 26.6359 19.2872 27.2386 16.9999 27.2386C12.5722 27.2386 8.82448 24.2482 7.48766 20.23H1.80811V24.6345C4.60538 30.1905 10.3545 34 16.9999 34Z" fill="url(#paint8_radial_145_112)"/>
<path fill-rule="evenodd" clip-rule="evenodd" d="M16.9999 34C21.59 34 25.4381 32.4777 28.2509 29.8814L22.7568 25.6159C21.2345 26.6359 19.2872 27.2386 16.9999 27.2386C12.5722 27.2386 8.82448 24.2482 7.48766 20.23H1.80811V24.6345C4.60538 30.1905 10.3545 34 16.9999 34Z" fill="url(#paint9_linear_145_112)"/>
<path fill-rule="evenodd" clip-rule="evenodd" d="M7.48774 20.2303C7.14774 19.2103 6.95456 18.1207 6.95456 17.0003C6.95456 15.8798 7.14774 14.7903 7.48774 13.7703V9.36572H1.80818C0.656819 11.6607 0 14.2571 0 17.0003C0 19.7435 0.656819 22.3398 1.80818 24.6348L7.48774 20.2303Z" fill="white"/>
<path fill-rule="evenodd" clip-rule="evenodd" d="M7.48774 20.2303C7.14774 19.2103 6.95456 18.1207 6.95456 17.0003C6.95456 15.8798 7.14774 14.7903 7.48774 13.7703V9.36572H1.80818C0.656819 11.6607 0 14.2571 0 17.0003C0 19.7435 0.656819 22.3398 1.80818 24.6348L7.48774 20.2303Z" fill="url(#paint10_radial_145_112)"/>
<path fill-rule="evenodd" clip-rule="evenodd" d="M7.48774 20.2303C7.14774 19.2103 6.95456 18.1207 6.95456 17.0003C6.95456 15.8798 7.14774 14.7903 7.48774 13.7703V9.36572H1.80818C0.656819 11.6607 0 14.2571 0 17.0003C0 19.7435 0.656819 22.3398 1.80818 24.6348L7.48774 20.2303Z" fill="url(#paint11_radial_145_112)"/>
<path fill-rule="evenodd" clip-rule="evenodd" d="M7.48774 20.2303C7.14774 19.2103 6.95456 18.1207 6.95456 17.0003C6.95456 15.8798 7.14774 14.7903 7.48774 13.7703V9.36572H1.80818C0.656819 11.6607 0 14.2571 0 17.0003C0 19.7435 0.656819 22.3398 1.80818 24.6348L7.48774 20.2303Z" fill="url(#paint12_radial_145_112)"/>
<path fill-rule="evenodd" clip-rule="evenodd" d="M7.48774 20.2303C7.14774 19.2103 6.95456 18.1207 6.95456 17.0003C6.95456 15.8798 7.14774 14.7903 7.48774 13.7703V9.36572H1.80818C0.656819 11.6607 0 14.2571 0 17.0003C0 19.7435 0.656819 22.3398 1.80818 24.6348L7.48774 20.2303Z" fill="url(#paint13_radial_145_112)"/>
<path fill-rule="evenodd" clip-rule="evenodd" d="M7.48774 20.2303C7.14774 19.2103 6.95456 18.1207 6.95456 17.0003C6.95456 15.8798 7.14774 14.7903 7.48774 13.7703V9.36572H1.80818C0.656819 11.6607 0 14.2571 0 17.0003C0 19.7435 0.656819 22.3398 1.80818 24.6348L7.48774 20.2303Z" fill="url(#paint14_linear_145_112)"/>
<path fill-rule="evenodd" clip-rule="evenodd" d="M16.9999 6.76137C19.4959 6.76137 21.7368 7.6191 23.4986 9.30365L28.3745 4.42773C25.4304 1.68455 21.5822 0 16.9999 0C10.3545 0 4.60538 3.80955 1.80811 9.36547L7.48766 13.77C8.82448 9.75183 12.5722 6.76137 16.9999 6.76137Z" fill="white"/>
<path fill-rule="evenodd" clip-rule="evenodd" d="M16.9999 6.76137C19.4959 6.76137 21.7368 7.6191 23.4986 9.30365L28.3745 4.42773C25.4304 1.68455 21.5822 0 16.9999 0C10.3545 0 4.60538 3.80955 1.80811 9.36547L7.48766 13.77C8.82448 9.75183 12.5722 6.76137 16.9999 6.76137Z" fill="url(#paint15_radial_145_112)"/>
<path fill-rule="evenodd" clip-rule="evenodd" d="M16.9999 6.76137C19.4959 6.76137 21.7368 7.6191 23.4986 9.30365L28.3745 4.42773C25.4304 1.68455 21.5822 0 16.9999 0C10.3545 0 4.60538 3.80955 1.80811 9.36547L7.48766 13.77C8.82448 9.75183 12.5722 6.76137 16.9999 6.76137Z" fill="url(#paint16_radial_145_112)"/>
<path fill-rule="evenodd" clip-rule="evenodd" d="M16.9999 6.76137C19.4959 6.76137 21.7368 7.6191 23.4986 9.30365L28.3745 4.42773C25.4304 1.68455 21.5822 0 16.9999 0C10.3545 0 4.60538 3.80955 1.80811 9.36547L7.48766 13.77C8.82448 9.75183 12.5722 6.76137 16.9999 6.76137Z" fill="url(#paint17_radial_145_112)"/>
<path fill-rule="evenodd" clip-rule="evenodd" d="M16.9999 6.76137C19.4959 6.76137 21.7368 7.6191 23.4986 9.30365L28.3745 4.42773C25.4304 1.68455 21.5822 0 16.9999 0C10.3545 0 4.60538 3.80955 1.80811 9.36547L7.48766 13.77C8.82448 9.75183 12.5722 6.76137 16.9999 6.76137Z" fill="url(#paint18_radial_145_112)"/>
<path fill-rule="evenodd" clip-rule="evenodd" d="M16.9999 6.76137C19.4959 6.76137 21.7368 7.6191 23.4986 9.30365L28.3745 4.42773C25.4304 1.68455 21.5822 0 16.9999 0C10.3545 0 4.60538 3.80955 1.80811 9.36547L7.48766 13.77C8.82448 9.75183 12.5722 6.76137 16.9999 6.76137Z" fill="url(#paint19_linear_145_112)"/>
<defs>
<radialGradient id="paint0_radial_145_112" cx="0" cy="0" r="1" gradientUnits="userSpaceOnUse" gradientTransform="translate(17 29.8815) scale(16.32 9.15636)">
<stop stop-color="#C47AFF"/>
<stop offset="1" stop-color="#C47AFF" stop-opacity="0.44"/>
</radialGradient>
<radialGradient id="paint1_radial_145_112" cx="0" cy="0" r="1" gradientUnits="userSpaceOnUse" gradientTransform="translate(33.32 13.9092) rotate(90) scale(15.9723 16.32)">
<stop stop-color="#00A3FF"/>
<stop offset="1" stop-color="#C47AFF" stop-opacity="0.69"/>
</radialGradient>
<radialGradient id="paint2_radial_145_112" cx="0" cy="0" r="1" gradientUnits="userSpaceOnUse" gradientTransform="translate(17 20.4122) rotate(30.1234) scale(18.8682 12.3791)">
<stop stop-color="#52AEAE"/>
<stop offset="1" stop-color="#C47AFF" stop-opacity="0.45"/>
</radialGradient>
<radialGradient id="paint3_radial_145_112" cx="0" cy="0" r="1" gradientUnits="userSpaceOnUse" gradientTransform="translate(33.32 29.4251) rotate(-90) scale(10.9524 10.8436)">
<stop stop-color="#FFCA42"/>
<stop offset="1" stop-color="#C47AFF" stop-opacity="0"/>
</radialGradient>
<linearGradient id="paint4_linear_145_112" x1="33.32" y1="21.8953" x2="18.8582" y2="21.8953" gradientUnits="userSpaceOnUse">
<stop offset="0.509889" stop-color="#C57AFF" stop-opacity="0"/>
<stop offset="1" stop-color="#0D0D17"/>
</linearGradient>
<radialGradient id="paint5_radial_145_112" cx="0" cy="0" r="1" gradientUnits="userSpaceOnUse" gradientTransform="translate(1.8081 34) scale(26.4428 7.89388)">
<stop stop-color="#C47AFF"/>
<stop offset="1" stop-color="#C47AFF" stop-opacity="0.44"/>
</radialGradient>
<radialGradient id="paint6_radial_145_112" cx="0" cy="0" r="1" gradientUnits="userSpaceOnUse" gradientTransform="translate(28.2509 20.23) rotate(90) scale(13.77 26.4428)">
<stop stop-color="#00A3FF"/>
<stop offset="1" stop-color="#C47AFF" stop-opacity="0.69"/>
</radialGradient>
<radialGradient id="paint7_radial_145_112" cx="0" cy="0" r="1" gradientUnits="userSpaceOnUse" gradientTransform="translate(1.80811 25.8363) rotate(17.157) scale(27.6743 11.7895)">
<stop stop-color="#52AEAE"/>
<stop offset="1" stop-color="#C47AFF" stop-opacity="0.45"/>
</radialGradient>
<radialGradient id="paint8_radial_145_112" cx="0" cy="0" r="1" gradientUnits="userSpaceOnUse" gradientTransform="translate(28.2509 33.6066) rotate(-90) scale(9.4423 17.5695)">
<stop stop-color="#FFCA42"/>
<stop offset="1" stop-color="#C47AFF" stop-opacity="0"/>
</radialGradient>
<linearGradient id="paint9_linear_145_112" x1="28.2509" y1="27.115" x2="-6" y2="39.5" gradientUnits="userSpaceOnUse">
<stop offset="0.509889" stop-color="#C57AFF" stop-opacity="0"/>
<stop offset="1" stop-color="#0D0D17"/>
</linearGradient>
<radialGradient id="paint10_radial_145_112" cx="0" cy="0" r="1" gradientUnits="userSpaceOnUse" gradientTransform="translate(-2.08773e-07 24.6348) scale(7.48774 8.75325)">
<stop stop-color="#C47AFF"/>
<stop offset="1" stop-color="#C47AFF" stop-opacity="0.44"/>
</radialGradient>
<radialGradient id="paint11_radial_145_112" cx="0" cy="0" r="1" gradientUnits="userSpaceOnUse" gradientTransform="translate(7.48774 9.36572) rotate(90) scale(15.2691 7.48774)">
<stop stop-color="#00A3FF"/>
<stop offset="1" stop-color="#C47AFF" stop-opacity="0.69"/>
</radialGradient>
<radialGradient id="paint12_radial_145_112" cx="0" cy="0" r="1" gradientUnits="userSpaceOnUse" gradientTransform="translate(2.07077e-07 15.5824) rotate(50.404) scale(11.7479 8.72042)">
<stop stop-color="#52AEAE"/>
<stop offset="1" stop-color="#C47AFF" stop-opacity="0.45"/>
</radialGradient>
<radialGradient id="paint13_radial_145_112" cx="0" cy="0" r="1" gradientUnits="userSpaceOnUse" gradientTransform="translate(7.48774 24.1986) rotate(-90) scale(10.4703 4.97512)">
<stop stop-color="#FFCA42"/>
<stop offset="1" stop-color="#C47AFF" stop-opacity="0"/>
</radialGradient>
<linearGradient id="paint14_linear_145_112" x1="7.48774" y1="17.0003" x2="-17" y2="10" gradientUnits="userSpaceOnUse">
<stop offset="0.509889" stop-color="#C57AFF" stop-opacity="0"/>
<stop offset="1" stop-color="#0D0D17"/>
</linearGradient>
<radialGradient id="paint15_radial_145_112" cx="0" cy="0" r="1" gradientUnits="userSpaceOnUse" gradientTransform="translate(1.8081 13.77) scale(26.5664 7.89388)">
<stop stop-color="#C47AFF"/>
<stop offset="1" stop-color="#C47AFF" stop-opacity="0.44"/>
</radialGradient>
<radialGradient id="paint16_radial_145_112" cx="0" cy="0" r="1" gradientUnits="userSpaceOnUse" gradientTransform="translate(28.3745) rotate(90) scale(13.77 26.5664)">
<stop stop-color="#00A3FF"/>
<stop offset="1" stop-color="#C47AFF" stop-opacity="0.69"/>
</radialGradient>
<radialGradient id="paint17_radial_145_112" cx="0" cy="0" r="1" gradientUnits="userSpaceOnUse" gradientTransform="translate(1.80811 5.60637) rotate(17.0818) scale(27.7924 11.7943)">
<stop stop-color="#52AEAE"/>
<stop offset="1" stop-color="#C47AFF" stop-opacity="0.45"/>
</radialGradient>
<radialGradient id="paint18_radial_145_112" cx="0" cy="0" r="1" gradientUnits="userSpaceOnUse" gradientTransform="translate(28.3745 13.3766) rotate(-90) scale(9.4423 17.6517)">
<stop stop-color="#FFCA42"/>
<stop offset="1" stop-color="#C47AFF" stop-opacity="0"/>
</radialGradient>
<linearGradient id="paint19_linear_145_112" x1="28.3745" y1="6.88501" x2="-21" y2="0.999997" gradientUnits="userSpaceOnUse">
<stop offset="0.509889" stop-color="#C57AFF" stop-opacity="0"/>
<stop offset="1" stop-color="#0D0D17"/>
</linearGradient>
</defs>
</svg>
