<svg width="23" height="18" viewBox="0 0 23 18" fill="none" xmlns="http://www.w3.org/2000/svg">
<path d="M9.58054 17.2581C7.7429 17.217 6.22998 16.9176 4.99812 16.4043C3.76627 15.8909 2.7868 15.2338 2.05982 14.4331C1.31264 13.6117 0.787584 12.7185 0.484668 11.7534C0.161556 10.7883 0 9.84381 0 8.91979C0 7.48245 0.313011 6.15806 0.939039 4.94655C1.54487 3.73505 2.55462 2.74947 3.96815 1.98972C4.28926 1.80989 4.6361 1.64923 5.00867 1.50751L6.2344 4.56838C6.2344 4.56838 4.89593 5.06423 4.19149 6.01303C3.48704 6.96182 3.32269 7.94121 3.3109 8.85948C3.2974 9.91275 3.5927 11.0424 4.38378 12.1048C5.17494 13.1671 6.15293 13.5489 7.00933 13.7792C8.48863 14.1769 9.43964 13.9549 9.43964 13.9549V0.741943H12.5393C14.3769 0.783013 15.8899 1.08244 17.1217 1.59577C18.3536 2.1091 19.333 2.7662 20.06 3.56694C20.8072 4.38832 21.3322 5.28152 21.6352 6.24661C21.9583 7.2117 22.1198 8.15622 22.1198 9.08024C22.1198 10.5176 21.8068 11.842 21.1808 13.0535C20.575 14.265 19.5652 15.2506 18.1517 16.0103C17.8306 16.1901 17.4837 16.3508 17.1112 16.4924L15.8854 13.4317C15.8854 13.4317 17.2239 12.9358 17.9283 11.987C18.6328 11.0382 18.7971 10.0588 18.8089 9.14055C18.8224 8.08728 18.5271 6.95762 17.7361 5.89527C16.9449 4.83293 15.9669 4.45114 15.1105 4.22088C13.6312 3.82309 12.6802 4.04517 12.6802 4.04517V17.2581H9.58054Z" fill="white"/>
</svg>
