<svg width="14" height="10" viewBox="0 0 14 10" fill="none" xmlns="http://www.w3.org/2000/svg">
<path d="M6.06368 10C4.90061 9.97513 3.94305 9.79384 3.16339 9.48304C2.38373 9.17223 1.76381 8.77438 1.30369 8.28955C0.830788 7.79223 0.498475 7.25143 0.306754 6.6671C0.102251 6.08277 0 5.51089 0 4.95143C0 4.08116 0.198109 3.27929 0.594333 2.54576C0.977774 1.81223 1.61686 1.21549 2.51151 0.755491C2.71474 0.646607 2.93426 0.549331 3.17007 0.463527L3.94585 2.31679C3.94585 2.31679 3.09871 2.61701 2.65286 3.19147C2.20701 3.76594 2.10299 4.35893 2.09552 4.91491C2.08698 5.55263 2.27388 6.23661 2.77457 6.87982C3.2753 7.52304 3.89429 7.7542 4.43632 7.89362C5.37259 8.13446 5.9745 8 5.9745 8V0H7.93632C9.09939 0.0248661 10.0569 0.206161 10.8366 0.516964C11.6163 0.827768 12.2362 1.22562 12.6963 1.71045C13.1692 2.20777 13.5015 2.74857 13.6933 3.3329C13.8978 3.91723 14 4.48911 14 5.04857C14 5.91884 13.8019 6.72071 13.4057 7.45424C13.0222 8.18777 12.3831 8.78451 11.4885 9.24451C11.2853 9.35339 11.0657 9.45067 10.8299 9.53643L10.0541 7.68321C10.0541 7.68321 10.9013 7.38299 11.3471 6.80853C11.793 6.23406 11.897 5.64107 11.9045 5.08509C11.913 4.44737 11.7261 3.76339 11.2254 3.12018C10.7247 2.47696 10.1057 2.2458 9.56368 2.10638C8.62741 1.86554 8.0255 2 8.0255 2V10H6.06368Z" fill="black"/>
</svg>
